# xmcd CD database file
#
# Track frame offsets:
#	150
#	26055
#	52122
#	59372
#
# Disc length: 1112 seconds
#
# Revision: 2
# Processed by: cddbd v1.5.1PL2 Copyright (c) Steve Scherf et al.
# Submitted via: CDex 1.60beta1
#
DISCID=34045604
DTITLE=Hajime Tachibana - Hajime Tachibana in the '90s - The Mark Gamble Remix
DYEAR=1992
DGENRE=Techno
TTITLE0=H(The From Clubfoot)
TTITLE1=Mr. Techie and Miss Kipple
TTITLE2=Theme from "Nihon no Sugao"
TTITLE3=Replicant J.B.
EXTD=YEAR: 1992
EXTT0=
EXTT1=
EXTT2=
EXTT3=
PLAYORDER=
